<svg width="1159" height="579" viewBox="0 0 1159 579" fill="none" xmlns="http://www.w3.org/2000/svg">
<path d="M4.82881 434.989C13.5154 469.292 37.8234 497.953 74.4259 520.397C111.031 542.842 159.905 559.051 217.645 568.446C333.125 587.236 483.974 578.759 642.81 538.536C801.646 498.313 938.349 433.973 1030.97 362.486C1077.28 326.741 1112.55 289.225 1134.06 252.063C1155.56 214.903 1163.3 178.127 1154.62 143.825C1145.93 109.522 1121.62 80.8616 1085.02 58.4176C1048.41 35.972 999.539 19.7634 941.799 10.3681C826.319 -8.42233 675.47 0.055471 516.634 40.2781C357.798 80.5007 221.095 144.841 128.477 216.328C82.1676 252.073 46.899 289.589 25.3885 326.751C3.87959 363.911 -3.85777 400.687 4.82881 434.989Z" stroke="url(#paint0_linear_18_129)"/>
<defs>
<linearGradient id="paint0_linear_18_129" x1="1114.8" y1="123.959" x2="118.739" y2="537.188" gradientUnits="userSpaceOnUse">
<stop stop-color="#484848"/>
<stop offset="0.491388" stop-color="#484848" stop-opacity="0.36"/>
<stop offset="1" stop-color="#484848"/>
</linearGradient>
</defs>
</svg>
