<svg width="1440" height="918" viewBox="0 0 1440 918" fill="none" xmlns="http://www.w3.org/2000/svg">
<path d="M-437.887 871.287C-420.438 940.194 -371.616 997.727 -298.186 1042.75C-224.754 1087.78 -126.74 1120.28 -10.9833 1139.11C220.528 1176.79 522.909 1159.79 841.277 1079.16C1159.65 998.543 1433.67 869.576 1619.35 726.259C1712.19 654.6 1782.93 579.368 1826.08 504.818C1869.23 430.271 1884.78 356.435 1867.33 287.528C1849.88 218.621 1801.06 161.087 1727.63 116.062C1654.2 71.0343 1556.18 38.5351 1440.43 19.6997C1208.92 -17.9709 906.535 -0.971297 588.167 79.6501C269.799 160.272 -4.22907 289.238 -189.908 432.555C-282.748 504.214 -353.481 579.446 -396.632 653.996C-439.782 728.544 -455.337 802.379 -437.887 871.287Z" stroke="url(#paint0_linear_18_131)"/>
<defs>
<linearGradient id="paint0_linear_18_131" x1="1787.05" y1="247.839" x2="-209.117" y2="1075.98" gradientUnits="userSpaceOnUse">
<stop stop-color="#484848"/>
<stop offset="0.491388" stop-color="#484848" stop-opacity="0.36"/>
<stop offset="1" stop-color="#484848"/>
</linearGradient>
</defs>
</svg>
