<svg width="1440" height="759" viewBox="0 0 1440 759" fill="none" xmlns="http://www.w3.org/2000/svg">
<path d="M-120.778 631.984C-108.138 681.896 -72.7719 723.581 -19.5567 756.212C33.6612 788.844 104.702 812.401 188.613 826.055C356.434 853.362 575.639 841.04 806.44 782.594C1037.24 724.147 1235.89 630.654 1370.49 526.765C1437.79 474.819 1489.05 420.29 1520.33 366.262C1551.6 312.236 1562.86 258.743 1550.22 208.83C1537.58 158.918 1502.22 117.233 1449 84.6022C1395.78 51.97 1324.74 28.4127 1240.83 14.759C1073.01 -12.5482 853.805 -0.226263 623.004 58.2202C392.204 116.667 193.554 210.16 58.9562 314.049C-8.34327 365.995 -59.6097 420.524 -90.8823 474.552C-122.153 528.578 -133.417 582.071 -120.778 631.984Z" stroke="url(#paint0_linear_18_130)"/>
<defs>
<linearGradient id="paint0_linear_18_130" x1="1492.15" y1="180.022" x2="44.9455" y2="780.416" gradientUnits="userSpaceOnUse">
<stop stop-color="#484848"/>
<stop offset="0.491388" stop-color="#484848" stop-opacity="0.36"/>
<stop offset="1" stop-color="#484848"/>
</linearGradient>
</defs>
</svg>
